<?xml version="1.0" encoding="utf-8"?>
<!-- Generator: Adobe Illustrator 16.0.3, SVG Export Plug-In . SVG Version: 6.00 Build 0)  -->
<!DOCTYPE svg PUBLIC "-//W3C//DTD SVG 1.1//EN" "http://www.w3.org/Graphics/SVG/1.1/DTD/svg11.dtd">
<svg version="1.1"
	 id="svg3336" xmlns:svg="http://www.w3.org/2000/svg" xmlns:rdf="http://www.w3.org/1999/02/22-rdf-syntax-ns#" xmlns:sodipodi="http://sodipodi.sourceforge.net/DTD/sodipodi-0.dtd" xmlns:cc="http://creativecommons.org/ns#" xmlns:inkscape="http://www.inkscape.org/namespaces/inkscape" xmlns:dc="http://purl.org/dc/elements/1.1/" inkscape:version="0.91 r13725" sodipodi:docname="wireframe_mockupsvg.svg"
	 xmlns="http://www.w3.org/2000/svg" xmlns:xlink="http://www.w3.org/1999/xlink" x="0px" y="0px" width="595.275px"
	 height="841.89px" viewBox="0 0 595.275 841.89" enable-background="new 0 0 595.275 841.89" xml:space="preserve">
<rect x="1412.138" y="1426.046" fill="#FFFFFF" width="777" height="328.354"/>
<rect x="-124.757" y="1437.546" fill="#FFFFFF" width="777" height="328.354"/>
<sodipodi:namedview  inkscape:cx="832.15268" inkscape:cy="2053.0122" showgrid="false" bordercolor="#666666" id="base" pagecolor="#ffffff" inkscape:zoom="0.64" borderopacity="1.0" inkscape:document-units="px" inkscape:window-x="0" inkscape:snap-center="false" inkscape:window-y="0" inkscape:snap-object-midpoints="true" inkscape:pageopacity="0.0" inkscape:current-layer="layer1" inkscape:window-width="1920" inkscape:pageshadow="2" inkscape:window-maximized="1" inkscape:window-height="1048">
	</sodipodi:namedview>
<g id="layer1" inkscape:label="Layer 1" inkscape:groupmode="layer">
	
		<rect id="rect3544" x="677.417" y="-16.445" fill="#FFFFFF" stroke="#000000" stroke-width="2.227" width="621.842" height="867.476"/>
	
		<rect id="rect3546" x="1468.104" y="-10.441" fill="#FFFFFF" stroke="#000000" stroke-width="1.5495" width="639.938" height="851.46"/>
	<text transform="matrix(0.6229 0 0 1 118.9199 236.2534)" font-family="'ArialMT'" font-size="130.5237">Friender</text>
	
		<linearGradient id="rect3565_1_" gradientUnits="userSpaceOnUse" x1="658.6846" y1="-134.0249" x2="940.4178" y2="-170.4845" gradientTransform="matrix(0.8 0 0 0.8 -66.5783 545.5602)">
		<stop  offset="0" style="stop-color:#F9F9F9"/>
		<stop  offset="1" style="stop-color:#F9F9F9;stop-opacity:0"/>
	</linearGradient>
	
		<rect id="rect3565" x="123.5" y="413.222" fill="url(#rect3565_1_)" stroke="#000000" stroke-width="1.5" width="337.495" height="93.752"/>
	<text transform="matrix(1 0 0 1 125.8359 468.9224)" font-family="'ArialMT'" font-size="32">Login With Facebook</text>
	<path d="M1-9.917"/>
	<path id="path4398" fill="#0000FF" stroke="#002AF2" stroke-opacity="0.7843" d="M732.479,440.228l-3.566,3.518l12.426-3.457
		l-12.377-3.629L732.479,440.228z"/>
	<path id="path3581" inkscape:connector-curvature="0" fill="#0000FF" stroke="#002AF2" stroke-opacity="0.7843" d="
		M741.337,440.289"/>
	<text transform="matrix(1 0 0 1 201 879.4722)" font-family="'ArialMT'" font-size="32">Login Page</text>
	
		<rect id="rect4170" x="680.296" y="-15.292" fill="#FFFFFF" stroke="#000000" stroke-width="0.671" width="621.842" height="77.027"/>
	<text transform="matrix(0.9029 0 0 1 783.2148 45.9663)" font-family="'ArialMT'" font-size="66.8739">People</text>
	
		<rect id="rect4235" x="715.185" y="112.798" fill="#FFFFFF" stroke="#000000" stroke-width="2.227" width="546.307" height="679.598"/>
	<text transform="matrix(1 0 0 1 834.75 888.9702)" font-family="'ArialMT'" font-size="32">Main Page(People Page)</text>
	
		<rect id="rect4255" x="994.146" y="-15.375" fill="#FFFFFF" stroke="#000000" stroke-width="0.8005" width="307.988" height="77.194"/>
	<text transform="matrix(0.9556 0 0 1 1016.3789 50.189)" fill="#B3B3B3" font-family="'ArialMT'" font-size="69.4825">Events</text>
	<path id="path4263" inkscape:connector-curvature="0" fill="none" stroke="#000000" d="M687.245,4.473l55-1.25"/>
	<path id="path4265" inkscape:connector-curvature="0" fill="none" stroke="#000000" d="M692.245,23.223h43.75"/>
	<path id="path4267" inkscape:connector-curvature="0" fill="none" stroke="#000000" d="M689.745,49.473h56.25"/>
	
		<rect id="rect4170-3" x="1468.595" y="-9.851" fill="#FFFFFF" stroke="#000000" stroke-width="0.6806" width="632.072" height="77.97"/>
	<text transform="matrix(0.9067 0 0 1 1576.1309 47.9683)" fill="#B3B3B3" font-family="'ArialMT'" font-size="67.6919">People</text>
	
		<rect id="rect4255-7" x="1787.556" y="-10.067" fill="#FFFFFF" stroke="#000000" stroke-width="0.8214" width="320.408" height="78.138"/>
	<text transform="matrix(0.9596 0 0 1 1813.127 52.2417)" font-family="'ArialMT'" font-size="70.3324">Events</text>
	<path id="path4263-5" inkscape:connector-curvature="0" fill="none" stroke="#000000" stroke-width="1.0143" d="M1478.583,5.966
		l55.906-1.266"/>
	<path id="path4265-8" inkscape:connector-curvature="0" fill="none" stroke="#000000" stroke-width="1.0143" d="M1483.665,24.945
		h44.471"/>
	<path id="path4267-4" inkscape:connector-curvature="0" fill="none" stroke="#000000" stroke-width="1.0143" d="M1481.124,51.517
		h57.176"/>
	<path fill="none" stroke="#000000" stroke-width="1.0143" d="M1-9.917"/>
	<path id="path4398-0" inkscape:connector-curvature="0" fill="#0000FF" stroke="#002AF2" stroke-opacity="0.7843" d="
		M1536.036,41.815l-3.566,3.519l12.432-3.458l-12.377-3.628L1536.036,41.815z"/>
	<path id="path3581-6" inkscape:connector-curvature="0" fill="#0000FF" stroke="#002AF2" stroke-opacity="0.7843" d="
		M1544.895,41.876"/>
	
		<rect id="rect4368" x="1468.104" y="68.284" fill="#FFFFFF" stroke="#000000" stroke-width="0.6526" width="639.938" height="151.014"/>
	
		<rect id="rect4370" x="1468.104" y="212.889" fill="#FFFFFF" stroke="#000000" stroke-width="0.6505" width="639.938" height="150.042"/>
	
		<rect id="rect4370-4" x="1468.104" y="340.267" fill="#FFFFFF" stroke="#000000" stroke-width="0.6505" width="639.938" height="150.043"/>
	<text transform="matrix(0.5701 0 0 1 1572.0518 167.9937)" font-family="'ArialMT'" font-size="94.1055">Event 1</text>
	<text transform="matrix(0.5701 0 0 1 1753.9844 167.9937)" font-family="'ArialMT'" font-size="94.1055" letter-spacing="-15.787"> </text>
	<text transform="matrix(0.5701 0 0 1 1756.7637 167.9937)" font-family="'ArialMT'" font-size="94.1055" letter-spacing="3.508"> </text>
	<text transform="matrix(0.4853 0 0 1 1570.5713 319.8257)" font-family="'ArialMT'" font-size="121.0821">Event 2</text>
	<text transform="matrix(0.3792 0 0 1 1514.2549 452.5972)" font-family="'ArialMT'" font-size="130.6382">Event 3</text>
	<text transform="matrix(1 0 0 1 1724.5723 876.1655)" font-family="'ArialMT'" font-size="32">Events Page</text>
	
		<rect id="rect4205" x="695.095" y="-1057.67" fill="#FFFFFF" stroke="#000000" stroke-width="2.227" width="621.843" height="848.417"/>
	
		<rect id="rect4207" x="695.979" y="-1058.555" fill="#FFFFFF" stroke="#000000" stroke-width="0.671" width="621.842" height="77.028"/>
	<text transform="matrix(0.9029 0 0 1 800.8926 -1000.5513)" font-family="'ArialMT'" font-size="66.8739">People</text>
	<rect id="rect4213" x="819.14" y="-875.962" fill="#FFFFFF" stroke="#000000" stroke-width="2.227" width="373.75" height="485"/>
	<text transform="matrix(1 0 0 1 883.6777 -674.5474)" font-family="'ArialMT'" font-size="32">Widget for </text>
	<text transform="matrix(1 0 0 1 883.6777 -634.5474)" font-family="'ArialMT'" font-size="32">Meeting People</text>
	
		<rect id="rect4221" x="1008.894" y="-1057.885" fill="#FFFFFF" stroke="#000000" stroke-width="0.8005" width="307.988" height="77.194"/>
	<text transform="matrix(0.9556 0 0 1 1034.0527 -996.3286)" fill="#B3B3B3" font-family="'ArialMT'" font-size="69.4825">Events</text>
	<path fill="#B3B3B3" d="M1-9.917"/>
	<path id="path4398-6" inkscape:connector-curvature="0" fill="#0000FF" stroke="#002AF2" stroke-opacity="0.7843" d="
		M734.075-244.146l4.604,4.652l-4.541-16.221l-4.715,16.171L734.075-244.146z"/>
	<path id="path3581-0" inkscape:connector-curvature="0" fill="#0000FF" stroke="#002AF2" stroke-opacity="0.7843" d="
		M734.138-255.713"/>
	
		<rect id="rect5630" x="696.501" y="-1058.033" fill="#FFFFFF" stroke="#000000" stroke-width="1.7324" width="377.045" height="846.73"/>
	<path id="path5632" inkscape:connector-curvature="0" fill="none" stroke="#000000" d="M1071.378-980.873l-376.533-0.884"/>
	<path id="path5634" inkscape:connector-curvature="0" fill="none" stroke="#000000" d="M1058.12-1046.281h-70.711"/>
	<path id="path5634-7" inkscape:connector-curvature="0" fill="none" stroke="#000000" d="M1059.888-1025.066h-70.711"/>
	<path id="path5634-7-0" inkscape:connector-curvature="0" fill="none" stroke="#000000" d="M1061.655-1003.854h-70.711"/>
	
		<ellipse id="path5684" fill="#FFFFFF" stroke="#000000" stroke-width="2.5367" cx="740.806" cy="-1018.879" rx="34.354" ry="32.58"/>
	<text transform="matrix(0.6276 0 0 1 719.4795 -1030.8716)" font-family="'ArialMT'" font-size="22.0364">profile</text>
	<text transform="matrix(0.6276 0 0 1 719.4795 -1003.3247)" font-family="'ArialMT'" font-size="22.0364">pic</text>
	<text transform="matrix(0.294 0 0 1 787.5127 -999.7271)" font-family="'ArialMT'" font-size="52.5574">First Name Last Name</text>
	
		<rect id="rect5699" x="697.495" y="-979.989" fill="#FFFFFF" stroke="#000000" stroke-width="2.227" width="375.649" height="75.13"/>
	<text transform="matrix(1.0053 0 0 1 815.7988 -925.7349)" font-family="'ArialMT'" font-size="46.5363">Profile</text>
	
		<rect id="rect5699-1" x="696.921" y="-905.592" fill="#FFFFFF" stroke="#000000" stroke-width="2.227" width="375.65" height="75.13"/>
</g>
<text transform="matrix(0.7833 0 0 1 784.7939 -848.2036)" font-family="'MyriadPro-Regular'" font-size="52.3894">Friends</text>
<rect id="rect5699-1_1_" x="696.5" y="-830.462" fill="#FFFFFF" stroke="#000000" stroke-width="2.227" width="375.65" height="75.13"/>
<text transform="matrix(0.5428 -0.0011 0.002 1 814.958 -765.25)" font-family="'MyriadPro-Regular'" font-size="58.2785">Your Events</text>
<line fill="none" stroke="#000000" stroke-width="2.227" x1="464.603" y1="492.279" x2="736.085" y2="472.41"/>
<line fill="none" stroke="#000000" stroke-width="2.227" x1="745" y1="323.445" x2="745" y2="324.445"/>
<line fill="none" stroke="#000000" stroke-width="2.227" x1="718.479" y1="7.445" x2="718.479" y2="8.445"/>
<line fill="none" stroke="#000000" stroke-width="2.227" x1="718.479" y1="7.445" x2="737.683" y2="-262.555"/>
<line fill="none" stroke="#000000" stroke-width="2.227" x1="1237.138" y1="33.14" x2="1535.041" y2="51.733"/>
<rect id="rect5699-1_2_" x="697.501" y="-755.332" fill="#FFFFFF" stroke="#000000" stroke-width="2.227" width="375.647" height="75.13"/>
<text transform="matrix(0.5428 -0.0011 0.002 1 818.2686 -694.918)" font-family="'MyriadPro-Regular'" font-size="58.2785">Settings</text>
<rect id="rect4205_1_" x="-245.9" y="-2054.798" fill="#FFFFFF" stroke="#000000" stroke-width="2.227" width="621.84" height="947.5"/>
<line fill="none" stroke="#000000" stroke-width="2.227" x1="713.125" y1="-933.506" x2="310.138" y2="-1343.555"/>
<rect id="rect4170_1_" x="-246.073" y="-2054.798" fill="#FFFFFF" stroke="#000000" stroke-width="0.671" width="621.842" height="77.027"/>
<path id="path5634_1_" inkscape:connector-curvature="0" fill="none" stroke="#000000" d="M-158.875-2046.555h-70.711"/>
<path id="path5634_2_" inkscape:connector-curvature="0" fill="none" stroke="#000000" d="M-159.188-2027.555h-70.711"/>
<path id="path5634_3_" inkscape:connector-curvature="0" fill="none" stroke="#000000" d="M-158.875-2003.555h-70.711"/>
<text transform="matrix(0.5853 0 0 1 -17.8594 -2003.5552)" font-family="'MyriadPro-Regular'" font-size="62.6244">Your Profile</text>
<rect x="-245.9" y="-1984.028" fill="#FFFFFF" stroke="#000000" stroke-width="0.671" width="621.84" height="393.473"/>
<polygon fill="#FFFFFF" stroke="#000000" stroke-width="0.671" points="1089.138,-1815.555 1092.138,-1815.555 1092.138,-1815.555 
	"/>
<line fill="none" stroke="#000000" stroke-width="0.671" x1="350.138" y1="-1846.555" x2="368.138" y2="-1823.555"/>
<line fill="none" stroke="#000000" stroke-width="0.671" x1="368.138" y1="-1823.555" x2="350.138" y2="-1803.555"/>
<line fill="none" stroke="#000000" stroke-width="0.671" x1="-215.862" y1="-1846.555" x2="-238.862" y2="-1823.555"/>
<line fill="none" stroke="#000000" stroke-width="0.671" x1="-238.862" y1="-1823.555" x2="-215.862" y2="-1803.555"/>
<text transform="matrix(0.4811 0 0 1 -63.8613 -1815.5552)" font-family="'MyriadPro-Regular'" font-size="96">Your Pictures</text>
<g>
	<title></title>
	<g id="miu">
		<path id="editor_pencil_pen_edit_write_glyph" d="M313.841-1637.135l10.563,11.498l24.146-26.282l-10.563-11.497L313.841-1637.135
			z M344.065-1670.036l-4.455,4.85l10.562,11.497l4.456-4.853c1.514-1.645,0-3.292,0-3.292l-7.536-8.203
			C347.092-1670.036,345.579-1671.683,344.065-1670.036z M312.356-1635.574l-2.225,13.97l12.811-2.445L312.356-1635.574z"/>
	</g>
</g>
<path fill="#B5B5B5" stroke="#000000" stroke-width="2.227" d="M368.138-1911.974c0,3.545-2.873,6.419-6.419,6.419l0,0
	c-3.545,0-6.419-2.874-6.419-6.419v-53.162c0-3.545,2.874-6.419,6.419-6.419l0,0c3.546,0,6.419,2.874,6.419,6.419V-1911.974z"/>
<text transform="matrix(1 0 0 1 324.1377 -1948.5552)" font-family="'MyriadPro-Regular'" font-size="12">Scroll</text>
<text transform="matrix(1 0 0 1 292.1377 -1790.5552)" font-family="'MyriadPro-Regular'" font-size="12">View Right</text>
<text transform="matrix(1 0 0 1 292.1377 -1776.1567)" font-family="'MyriadPro-Regular'" font-size="12">Photo (can</text>
<text transform="matrix(1 0 0 1 292.1377 -1761.7563)" font-family="'MyriadPro-Regular'" font-size="12">also swipe)</text>
<text transform="matrix(1 0 0 1 -215.8618 -1790.5552)" font-family="'MyriadPro-Regular'" font-size="12">View Left</text>
<text transform="matrix(1 0 0 1 -215.8618 -1776.1567)" font-family="'MyriadPro-Regular'" font-size="12">Photo (can</text>
<text transform="matrix(1 0 0 1 -215.8618 -1761.7563)" font-family="'MyriadPro-Regular'" font-size="12">also swipe)</text>
<text transform="matrix(0.412 0 0 1 -229.8989 -1542.979)" font-family="'MyriadPro-Regular'" font-size="53.1393">FirstName LastName</text>
<text transform="matrix(0.412 0 0 1 303.1338 -1542.979)" font-family="'MyriadPro-Regular'" font-size="53.1393">Age</text>
<text transform="matrix(0.7082 0 0 1 -227.3613 -1320.6626)" font-family="'MyriadPro-Regular'" font-size="33.7796">Interests:</text>
<rect x="-228.861" y="-1513.555" fill="none" width="564" height="188"/>
<text transform="matrix(0.9403 0 0 1 -228.6118 -1501.5161)" font-family="'MyriadPro-Regular'" font-size="24">Your Bio Here:</text>
<text transform="matrix(0.9403 0 0 1 -228.6118 -1472.7173)" font-family="'MyriadPro-Regular'" font-size="24">Lorem Ipsum is simply dummy text of the printing and </text>
<text transform="matrix(0.9403 0 0 1 -228.6118 -1443.9165)" font-family="'MyriadPro-Regular'" font-size="24">typesetting industry. Lorem Ipsum has been the industry&apos;s </text>
<text transform="matrix(0.9403 0 0 1 -228.6118 -1415.1177)" font-family="'MyriadPro-Regular'" font-size="24">standard dummy text ever since the 1500s, when an un</text>
<text transform="matrix(0.9403 0 0 1 289.6382 -1415.1177)" font-family="'MyriadPro-Regular'" font-size="24">-</text>
<text transform="matrix(0.9403 0 0 1 -228.6118 -1386.3169)" font-family="'MyriadPro-Regular'" font-size="24">known printer took a galley of type and scrambled it to </text>
<text transform="matrix(0.9403 0 0 1 -228.6118 -1357.5161)" font-family="'MyriadPro-Regular'" font-size="24">make a type specimen book. </text>
<g>
	<title></title>
	<g id="miu_1_">
		<path id="editor_pencil_pen_edit_write_glyph_1_" d="M312.89-1375.794l10.563,11.498l24.144-26.282l-10.563-11.497
			L312.89-1375.794z M343.115-1408.695l-4.456,4.85l10.563,11.497l4.455-4.853c1.516-1.645,0-3.292,0-3.292l-7.535-8.203
			C346.142-1408.695,344.628-1410.342,343.115-1408.695z M311.406-1374.233l-2.224,13.97l12.809-2.445L311.406-1374.233z"/>
	</g>
</g>
<g>
	<circle fill="#FFFFFF" cx="-161.362" cy="-1242.884" r="54.5"/>
	
		<linearGradient id="SVGID_1_" gradientUnits="userSpaceOnUse" x1="-216.8618" y1="-1760.7261" x2="-105.8618" y2="-1760.7261" gradientTransform="matrix(1 0 0 1 0 512.6709)">
		<stop  offset="0" style="stop-color:#FFFFFF"/>
		<stop  offset="0" style="stop-color:#000000"/>
	</linearGradient>
	<path fill="url(#SVGID_1_)" d="M-161.362-1192.555c-30.603,0-55.5-24.897-55.5-55.5s24.897-55.5,55.5-55.5s55.5,24.897,55.5,55.5
		S-130.759-1192.555-161.362-1192.555z M-161.362-1301.555c-29.5,0-53.5,24-53.5,53.5s24,53.5,53.5,53.5s53.5-23.315,53.5-53.5
		C-107.862-1277.555-131.862-1301.555-161.362-1301.555z"/>
</g>
<text transform="matrix(1 0 0 1 -198.8623 -1256.5552)" font-family="'MyriadPro-Regular'" font-size="24">Pic of</text>
<text transform="matrix(1 0 0 1 -198.8623 -1227.7563)" font-family="'MyriadPro-Regular'" font-size="24">Interest</text>
<line fill="none" stroke="#C7C8CA" stroke-width="2.227" x1="-245.9" y1="-1534.555" x2="375.94" y2="-1534.555"/>
<line fill="none" stroke="#939598" stroke-width="2.227" x1="827.138" y1="-1542.979" x2="826.138" y2="-1542.979"/>
<line fill="none" stroke="#C7C8CA" stroke-width="2.227" x1="-245.9" y1="-1351.958" x2="375.94" y2="-1351.958"/>
<g>
	<circle fill="#FFFFFF" cx="-29.364" cy="-1242.627" r="54.5"/>
	
		<linearGradient id="SVGID_2_" gradientUnits="userSpaceOnUse" x1="-84.8638" y1="-1760.7261" x2="26.1362" y2="-1760.7261" gradientTransform="matrix(1 0 0 1 0 512.6709)">
		<stop  offset="0" style="stop-color:#FFFFFF"/>
		<stop  offset="0" style="stop-color:#000000"/>
	</linearGradient>
	<path fill="url(#SVGID_2_)" d="M-29.364-1192.555c-30.603,0-55.5-24.897-55.5-55.5s24.897-55.5,55.5-55.5
		c30.603,0,55.5,24.897,55.5,55.5S1.239-1192.555-29.364-1192.555z M-29.364-1301.555c-29.5,0-53.5,24-53.5,53.5s24,53.5,53.5,53.5
		s53.5-24,53.5-53.5S0.136-1301.555-29.364-1301.555z"/>
</g>
<g>
	<circle fill="#FFFFFF" cx="108.639" cy="-1246.555" r="54.5"/>
	
		<linearGradient id="SVGID_3_" gradientUnits="userSpaceOnUse" x1="53.1392" y1="-1754.0547" x2="164.1392" y2="-1754.0547" gradientTransform="matrix(1 0 0 1 0 512.6709)">
		<stop  offset="0" style="stop-color:#FFFFFF"/>
		<stop  offset="0" style="stop-color:#000000"/>
	</linearGradient>
	<path fill="url(#SVGID_3_)" d="M108.639-1185.884c-30.603,0-55.5-24.897-55.5-55.5c0-30.604,24.897-55.5,55.5-55.5
		s55.5,24.896,55.5,55.5C164.139-1210.781,139.242-1185.884,108.639-1185.884z M108.639-1294.884c-29.5,0-53.5,24-53.5,53.5
		s24,53.5,53.5,53.5s53.5-23.315,53.5-53.5C162.138-1270.884,138.138-1294.884,108.639-1294.884z"/>
</g>
<g>
	<circle fill="#FFFFFF" cx="246.057" cy="-1246.298" r="54.5"/>
	
		<linearGradient id="SVGID_4_" gradientUnits="userSpaceOnUse" x1="190.5571" y1="-1759.2261" x2="301.5557" y2="-1759.2261" gradientTransform="matrix(1 0 0 1 0 512.6709)">
		<stop  offset="0" style="stop-color:#FFFFFF"/>
		<stop  offset="0" style="stop-color:#000000"/>
	</linearGradient>
	<path fill="url(#SVGID_4_)" d="M246.057-1191.055c-30.603,0-55.5-24.897-55.5-55.5s24.897-55.5,55.5-55.5
		s55.499,24.897,55.499,55.5S276.66-1191.055,246.057-1191.055z M246.057-1300.055c-29.5,0-53.5,24-53.5,53.5
		c0,43.291,24,53.5,53.5,53.5s53.499-24,53.499-53.5S275.556-1300.055,246.057-1300.055z"/>
</g>
<text transform="matrix(1 0 0 1 -63.8638 -1256.5552)" font-family="'MyriadPro-Regular'" font-size="24">Pic of</text>
<text transform="matrix(1 0 0 1 -63.8638 -1222.5845)" font-family="'MyriadPro-Regular'" font-size="24">Interest</text>
<text transform="matrix(1 0 0 1 69.1377 -1251.3853)" font-family="'MyriadPro-Regular'" font-size="24">Pic of</text>
<text transform="matrix(1 0 0 1 69.1377 -1222.5845)" font-family="'MyriadPro-Regular'" font-size="24">Interest</text>
<text transform="matrix(1 0 0 1 220.1377 -1251.3853)" font-family="'MyriadPro-Regular'" font-size="24">Pic of</text>
<text transform="matrix(1 0 0 1 220.1377 -1222.5845)" font-family="'MyriadPro-Regular'" font-size="24">Interest</text>
<text transform="matrix(1 0 0 1 -199.5332 -1158.1274)" font-family="'MyriadPro-Regular'" font-size="24">Interest</text>
<text transform="matrix(1 0 0 1 -191.061 -1129.3286)" font-family="'MyriadPro-Regular'" font-size="24">Name</text>
<text transform="matrix(1 0 0 1 -67.5352 -1158.3853)" font-family="'MyriadPro-Regular'" font-size="24">Interest</text>
<text transform="matrix(1 0 0 1 -59.063 -1129.5845)" font-family="'MyriadPro-Regular'" font-size="24">Name</text>
<text transform="matrix(1 0 0 1 64.4668 -1158.1274)" font-family="'MyriadPro-Regular'" font-size="24">Interest</text>
<text transform="matrix(1 0 0 1 72.939 -1129.3286)" font-family="'MyriadPro-Regular'" font-size="24">Name</text>
<text transform="matrix(1 0 0 1 207.8853 -1158.1274)" font-family="'MyriadPro-Regular'" font-size="24">Interest</text>
<text transform="matrix(1 0 0 1 216.3574 -1129.3286)" font-family="'MyriadPro-Regular'" font-size="24">Name</text>
<line fill="none" stroke="#000000" stroke-width="0.671" x1="341.138" y1="-1269.555" x2="359.138" y2="-1246.555"/>
<line fill="none" stroke="#000000" stroke-width="0.671" x1="359.138" y1="-1246.555" x2="341.138" y2="-1226.555"/>
<g>
	<title></title>
	<g id="miu_2_">
		<path id="editor_pencil_pen_edit_write_glyph_2_" d="M305.26-1149.334l10.563,11.498l24.144-26.282l-10.563-11.497
			L305.26-1149.334z M335.485-1182.235l-4.457,4.85l10.563,11.497l4.456-4.853c1.513-1.645,0-3.292,0-3.292l-7.536-8.203
			C338.511-1182.235,336.998-1183.882,335.485-1182.235z M303.776-1147.773l-2.221,13.97l12.805-2.445L303.776-1147.773z"/>
	</g>
</g>
<text transform="matrix(1 0 0 1 862.6982 -179.438)" font-family="'MyriadPro-Regular'" font-size="24">Navigation Sidebar</text>
<text transform="matrix(1 0 0 1 -103.2515 -1083.8911)" font-family="'MyriadPro-Regular'" font-size="24">Your Profile Page</text>
<line fill="none" stroke="#000000" stroke-width="0.671" x1="1270.679" y1="410.664" x2="1288.679" y2="433.664"/>
<line fill="none" stroke="#000000" stroke-width="0.671" x1="1288.679" y1="433.664" x2="1270.679" y2="453.664"/>
<line fill="none" stroke="#000000" stroke-width="0.671" x1="707.006" y1="412.163" x2="684.006" y2="435.164"/>
<line fill="none" stroke="#000000" stroke-width="0.671" x1="684.006" y1="435.164" x2="707.006" y2="455.164"/>
<text transform="matrix(0.6165 0 0 1 727.915 161.7788)" font-family="'MyriadPro-Regular'" font-size="43.4622">FirstName LastName</text>
<text transform="matrix(0.6165 0 0 1 1209.3818 158.1499)" font-family="'MyriadPro-Regular'" font-size="43.4622">Age</text>
<path fill="none" stroke="#000000" stroke-width="2.227" d="M958.696,86.055"/>
<path fill="none" stroke="#000000" stroke-width="2.227" d="M930.198,107.054"/>
<path fill="none" stroke="#000000" stroke-width="2.227" d="M987.342,107.054"/>
<path fill="none" stroke="#000000" stroke-width="2.227" d="M958.696,86.055"/>
<rect x="713.125" y="171.55" fill="none" stroke="#000000" stroke-width="2.227" width="547.369" height="369.522"/>
<text transform="matrix(0.4304 0 0 1 833.75 372.8472)" font-family="'MyriadPro-Regular'" font-size="120.7232">Main Picture</text>
<polygon fill="none" stroke="#000000" stroke-width="2.227" points="1261.026,623.568 713.657,623.568 715.017,541.072 
	1262.386,541.072 "/>
<text transform="matrix(1.4125 0 0 1 862.6982 597.8491)" font-family="'MyriadPro-Regular'" font-size="48.8382">Bio</text>
<circle fill="#FFFFFF" stroke="#000000" stroke-miterlimit="10" cx="799.893" cy="692.263" r="58.736"/>
<text transform="matrix(1 0 0 1 747.9473 768.5288)" font-family="'MyriadPro-Regular'" font-size="19">Main Interest</text>
<text transform="matrix(1 0 0 1 783.3154 791.3296)" font-family="'MyriadPro-Regular'" font-size="19">One</text>
<circle fill="#FFFFFF" stroke="#000000" stroke-miterlimit="10" cx="974.314" cy="692.263" r="58.736"/>
<text transform="matrix(1 0 0 1 922.3691 768.5288)" font-family="'MyriadPro-Regular'" font-size="19">Main Interest</text>
<text transform="matrix(1 0 0 1 957.3857 791.3296)" font-family="'MyriadPro-Regular'" font-size="19">Two</text>
<circle fill="#FFFFFF" stroke="#000000" stroke-miterlimit="10" cx="1150.646" cy="692.263" r="58.736"/>
<text transform="matrix(1 0 0 1 1079.3408 768.5288)" font-family="'MyriadPro-Regular'" font-size="19">Main Interest</text>
<text transform="matrix(1 0 0 1 1108.667 791.3296)" font-family="'MyriadPro-Regular'" font-size="19">Three</text>
<g>
	
		<polyline id="Done__x2014__Displayed_on_the_left_side_of_a_contextual_action_bar__x28_CAB_x29__to_allow_the_user_to_dismiss_it._1_" fill="none" stroke="#000000" stroke-width="2" stroke-miterlimit="10" points="
		1018.279,72.123 970.745,99.987 949.139,87.321 	"/>
</g>
<g>
	<polygon fill="#010101" points="1006.113,796.662 985.787,817.601 965.388,796.662 964.009,798.078 984.335,819.015 
		964.009,839.957 965.388,841.373 985.787,820.431 1006.113,841.373 1007.565,839.957 987.166,819.015 1007.565,798.078 	"/>
</g>
<line fill="none" stroke="#000000" stroke-width="2.227" x1="1249.076" y1="511.763" x2="1169.688" y2="990.236"/>
<g>
	
		<rect id="rect4205_2_" x="729.782" y="938.509" fill="#FFFFFF" stroke="#000000" stroke-width="2.227" width="621.841" height="819.918"/>
</g>
<rect id="rect4170_2_" x="729.782" y="938.509" fill="#FFFFFF" stroke="#000000" stroke-width="0.671" width="621.841" height="77.025"/>
<path id="path5634_6_" inkscape:connector-curvature="0" fill="none" stroke="#000000" d="M816.98,946.751H746.27"/>
<path id="path5634_5_" inkscape:connector-curvature="0" fill="none" stroke="#000000" d="M816.667,965.751h-70.711"/>
<path id="path5634_4_" inkscape:connector-curvature="0" fill="none" stroke="#000000" d="M816.98,989.751H746.27"/>
<text transform="matrix(0.5853 0 0 1 957.9961 989.7515)" font-family="'MyriadPro-Regular'" font-size="62.6244">Their Profile</text>
<line fill="none" stroke="#000000" stroke-width="0.671" x1="1325.993" y1="1146.751" x2="1343.993" y2="1169.751"/>
<line fill="none" stroke="#000000" stroke-width="0.671" x1="1343.993" y1="1169.751" x2="1325.993" y2="1189.751"/>
<line fill="none" stroke="#000000" stroke-width="0.671" x1="759.993" y1="1146.751" x2="736.993" y2="1169.751"/>
<line fill="none" stroke="#000000" stroke-width="0.671" x1="736.993" y1="1169.751" x2="759.993" y2="1189.751"/>
<text transform="matrix(0.4811 0 0 1 911.9961 1177.7515)" font-family="'MyriadPro-Regular'" font-size="96">Their Pictures</text>
<text transform="matrix(1 0 0 1 1267.9932 1202.7515)" font-family="'MyriadPro-Regular'" font-size="12">View Right</text>
<text transform="matrix(1 0 0 1 1267.9932 1217.1499)" font-family="'MyriadPro-Regular'" font-size="12">Photo (can</text>
<text transform="matrix(1 0 0 1 1267.9932 1231.5503)" font-family="'MyriadPro-Regular'" font-size="12">also swipe)</text>
<text transform="matrix(1 0 0 1 759.9932 1202.7515)" font-family="'MyriadPro-Regular'" font-size="12">View Left</text>
<text transform="matrix(1 0 0 1 759.9932 1217.1499)" font-family="'MyriadPro-Regular'" font-size="12">Photo (can</text>
<text transform="matrix(1 0 0 1 759.9932 1231.5503)" font-family="'MyriadPro-Regular'" font-size="12">also swipe)</text>
<text transform="matrix(0.412 0 0 1 752.9531 1054.7515)" font-family="'MyriadPro-Regular'" font-size="53.1393">FirstName LastName</text>
<text transform="matrix(0.412 0 0 1 1254.9883 1054.7515)" font-family="'MyriadPro-Regular'" font-size="53.1393">Age</text>
<text transform="matrix(0.7082 0 0 1 -73.1025 1488.4341)" font-family="'MyriadPro-Regular'" font-size="33.7796">Interests:</text>
<text transform="matrix(0.9403 0 0 1 773.2432 1469.9136)" font-family="'MyriadPro-Regular'" font-size="24">Bio:</text>
<text transform="matrix(0.9403 0 0 1 773.2432 1498.7124)" font-family="'MyriadPro-Regular'" font-size="24">Lorem Ipsum is simply dummy text of the printing and </text>
<text transform="matrix(0.9403 0 0 1 773.2432 1527.5132)" font-family="'MyriadPro-Regular'" font-size="24">typesetting industry. Lorem Ipsum has been the industry&apos;s </text>
<text transform="matrix(0.9403 0 0 1 773.2432 1556.312)" font-family="'MyriadPro-Regular'" font-size="24">standard dummy text ever since the 1500s, when an un</text>
<text transform="matrix(0.9403 0 0 1 1265.4932 1578.189)" font-family="'MyriadPro-Regular'" font-size="24">-</text>
<text transform="matrix(0.9403 0 0 1 773.2432 1585.1128)" font-family="'MyriadPro-Regular'" font-size="24">known printer took a galley of type and scrambled it to </text>
<text transform="matrix(0.9403 0 0 1 773.2432 1613.9136)" enable-background="new    "><tspan x="0" y="0" font-family="'MyriadPro-Regular'" font-size="24">make a type specimen book. make a type specimen book. </tspan><tspan x="0" y="28.8" font-family="'MyriadPro-Regular'" font-size="24">make a type specimen book. make a type specimen book. </tspan><tspan x="0" y="57.6" font-family="'MyriadPro-Regular'" font-size="24">make a type specimen book. make a type specimen book. </tspan><tspan x="0" y="86.4" font-family="'MyriadPro-Regular'" font-size="24">make a type specimen book. make a type specimen book. </tspan></text>
<g>
	<circle fill="#FFFFFF" cx="-25.144" cy="1574.31" r="54.5"/>
	
		<linearGradient id="SVGID_5_" gradientUnits="userSpaceOnUse" x1="-80.6436" y1="1056.4673" x2="30.3564" y2="1056.4673" gradientTransform="matrix(1 0 0 1 0 512.6709)">
		<stop  offset="0" style="stop-color:#FFFFFF"/>
		<stop  offset="0" style="stop-color:#000000"/>
	</linearGradient>
	<path fill="url(#SVGID_5_)" d="M-25.144,1624.638c-30.604,0-55.5-24.896-55.5-55.5c0-30.605,24.896-55.5,55.5-55.5
		s55.5,24.895,55.5,55.5C30.356,1599.742,5.461,1624.638-25.144,1624.638z M-25.144,1515.638c-29.5,0-53.5,24-53.5,53.5
		s24,53.5,53.5,53.5s53.5-23.314,53.5-53.5C28.356,1539.638,4.356,1515.638-25.144,1515.638z"/>
</g>
<text transform="matrix(1 0 0 1 -63.6436 1557.2964)" font-family="'MyriadPro-Regular'" font-size="24">Pic of</text>
<text transform="matrix(1 0 0 1 -63.6436 1586.0952)" font-family="'MyriadPro-Regular'" font-size="24">Interest</text>
<line fill="none" stroke="#C7C8CA" stroke-width="2.227" x1="729.956" y1="1426.046" x2="1351.797" y2="1426.046"/>
<g>
	<circle fill="#FFFFFF" cx="105.854" cy="1561.64" r="54.5"/>
	
		<linearGradient id="SVGID_6_" gradientUnits="userSpaceOnUse" x1="50.3545" y1="1043.5415" x2="161.3545" y2="1043.5415" gradientTransform="matrix(1 0 0 1 0 512.6709)">
		<stop  offset="0" style="stop-color:#FFFFFF"/>
		<stop  offset="0" style="stop-color:#000000"/>
	</linearGradient>
	<path fill="url(#SVGID_6_)" d="M105.854,1611.712c-30.604,0-55.5-24.896-55.5-55.5c0-30.605,24.896-55.5,55.5-55.5
		c30.604,0,55.5,24.895,55.5,55.5C161.354,1586.816,136.458,1611.712,105.854,1611.712z M105.854,1502.712
		c-29.5,0-53.5,24-53.5,53.5s24,53.5,53.5,53.5s53.5-24,53.5-53.5S135.354,1502.712,105.854,1502.712z"/>
</g>
<g>
	<circle fill="#FFFFFF" cx="242.153" cy="1556.007" r="54.5"/>
	
		<linearGradient id="SVGID_7_" gradientUnits="userSpaceOnUse" x1="186.6533" y1="1048.5083" x2="297.6533" y2="1048.5083" gradientTransform="matrix(1 0 0 1 0 512.6709)">
		<stop  offset="0" style="stop-color:#FFFFFF"/>
		<stop  offset="0" style="stop-color:#000000"/>
	</linearGradient>
	<path fill="url(#SVGID_7_)" d="M242.153,1616.679c-30.604,0-55.5-24.898-55.5-55.5c0-30.605,24.896-55.5,55.5-55.5
		s55.5,24.895,55.5,55.5C297.653,1591.781,272.756,1616.679,242.153,1616.679z M242.153,1507.679c-29.5,0-53.5,24-53.5,53.5
		s24,53.5,53.5,53.5s53.5-23.316,53.5-53.5C295.651,1531.679,271.651,1507.679,242.153,1507.679z"/>
</g>
<g>
	<circle fill="#FFFFFF" cx="379.571" cy="1556.265" r="54.5"/>
	
		<linearGradient id="SVGID_8_" gradientUnits="userSpaceOnUse" x1="324.0713" y1="1043.3364" x2="435.0693" y2="1043.3364" gradientTransform="matrix(1 0 0 1 0 512.6709)">
		<stop  offset="0" style="stop-color:#FFFFFF"/>
		<stop  offset="0" style="stop-color:#000000"/>
	</linearGradient>
	<path fill="url(#SVGID_8_)" d="M379.571,1611.507c-30.604,0-55.5-24.896-55.5-55.5c0-30.605,24.896-55.5,55.5-55.5
		s55.498,24.895,55.498,55.5C435.069,1586.611,410.174,1611.507,379.571,1611.507z M379.571,1502.507c-29.5,0-53.5,24-53.5,53.5
		c0,43.291,24,53.5,53.5,53.5s53.498-24,53.498-53.5S409.069,1502.507,379.571,1502.507z"/>
</g>
<text transform="matrix(1 0 0 1 65.5557 1541.9136)" font-family="'MyriadPro-Regular'" font-size="24">Pic of</text>
<text transform="matrix(1 0 0 1 71.3545 1581.6831)" font-family="'MyriadPro-Regular'" font-size="24">Interest</text>
<text transform="matrix(1 0 0 1 202.6514 1551.1772)" font-family="'MyriadPro-Regular'" font-size="24">Pic of</text>
<text transform="matrix(1 0 0 1 202.6514 1579.978)" font-family="'MyriadPro-Regular'" font-size="24">Interest</text>
<text transform="matrix(1 0 0 1 351.4463 1548.9722)" font-family="'MyriadPro-Regular'" font-size="24">Pic of</text>
<text transform="matrix(1 0 0 1 351.2725 1577.7729)" font-family="'MyriadPro-Regular'" font-size="24">Interest</text>
<text transform="matrix(1 0 0 1 -64.3145 1646.1401)" font-family="'MyriadPro-Regular'" font-size="24">Interest</text>
<text transform="matrix(1 0 0 1 -55.8428 1674.939)" font-family="'MyriadPro-Regular'" font-size="24">Name</text>
<text transform="matrix(1 0 0 1 67.6836 1645.8823)" font-family="'MyriadPro-Regular'" font-size="24">Interest</text>
<text transform="matrix(1 0 0 1 74.4502 1672.978)" font-family="'MyriadPro-Regular'" font-size="24">Name</text>
<text transform="matrix(1 0 0 1 197.9805 1644.4351)" font-family="'MyriadPro-Regular'" font-size="24">Interest</text>
<text transform="matrix(1 0 0 1 206.4521 1673.2339)" font-family="'MyriadPro-Regular'" font-size="24">Name</text>
<text transform="matrix(1 0 0 1 337.3057 1640.3413)" font-family="'MyriadPro-Regular'" font-size="24">Interest</text>
<text transform="matrix(1 0 0 1 345.7773 1669.1401)" font-family="'MyriadPro-Regular'" font-size="24">Name</text>
<line fill="none" stroke="#000000" stroke-width="0.671" x1="1316.993" y1="1580.223" x2="1334.993" y2="1603.223"/>
<line fill="none" stroke="#000000" stroke-width="0.671" x1="1334.993" y1="1603.223" x2="1316.993" y2="1623.223"/>
<text transform="matrix(1 0 0 1 92.1377 320.1245)" font-family="'MyriadPro-Regular'" font-size="24.1665">Background Image of People Having Fun</text>
<rect id="rect4205_3_" x="-340.284" y="-1030.872" fill="#FFFFFF" stroke="#000000" stroke-width="2.227" width="621.84" height="947.5"/>
<line fill="none" stroke="#000000" stroke-width="2.227" x1="768.204" y1="-860.402" x2="246.058" y2="-822.904"/>
<path id="path5634_9_" inkscape:connector-curvature="0" fill="none" stroke="#000000" d="M-257.344-1017.829h-70.711"/>
<path id="path5634_8_" inkscape:connector-curvature="0" fill="none" stroke="#000000" d="M-257.657-998.829h-70.711"/>
<path id="path5634_7_" inkscape:connector-curvature="0" fill="none" stroke="#000000" d="M-257.344-974.829h-70.711"/>
<line fill="none" stroke="#000000" x1="-340.284" y1="-962.396" x2="281.557" y2="-962.396"/>
<text transform="matrix(0.8844 0 0 1 -103.2524 -980.6919)" font-family="'MyriadPro-Regular'" font-size="49.4498">Friends</text>
<line fill="none" stroke="#000000" stroke-width="0.671" x1="759.993" y1="1578.723" x2="736.993" y2="1601.723"/>
<line fill="none" stroke="#000000" stroke-width="0.671" x1="736.993" y1="1601.723" x2="759.993" y2="1621.723"/>
<circle fill="#FFFFFF" stroke="#000000" stroke-width="2" cx="526.571" cy="1558.235" r="54.5"/>
<text transform="matrix(1 0 0 1 498.4463 1550.9409)" font-family="'MyriadPro-Regular'" font-size="24">Pic of</text>
<text transform="matrix(1 0 0 1 498.2725 1579.7417)" font-family="'MyriadPro-Regular'" font-size="24">Interest</text>
<text transform="matrix(1 0 0 1 484.3057 1642.3101)" font-family="'MyriadPro-Regular'" font-size="24">Interest</text>
<text transform="matrix(1 0 0 1 492.7773 1671.1089)" font-family="'MyriadPro-Regular'" font-size="24">Name</text>
<line fill="none" stroke="#000000" stroke-width="0.671" x1="263.654" y1="1704.096" x2="240.654" y2="1722.096"/>
<line fill="none" stroke="#000000" stroke-width="0.671" x1="240.654" y1="1722.096" x2="220.654" y2="1704.096"/>
<line fill="none" stroke="#000000" stroke-width="2" x1="1325.993" y1="1591.723" x2="1452.138" y2="1591.723"/>
<line fill="none" stroke="#000000" stroke-width="2" x1="622.138" y1="1623.223" x2="742.138" y2="1621.723"/>
</svg>
